<svg xmlns="http://www.w3.org/2000/svg" xmlns:xlink="http://www.w3.org/1999/xlink" viewBox="0 0 125 60"><path d="M.1 16H125v44H.1V16z" fill="#d0191d"/><g fill="#fff"><path d="M22.3 47v-9.2l9.2 9.2h-9.2zm-2.6 0h-6.5V28.6h6.5V47zm2.6-18.3c2.3 0 4.4-.1 5.5 1.5l.6.9s1.2 2.3-.4 4.5c0 .1-.1.2-.2.3-1.6 2-4.1 1.4-5.5 1.5v-8.7zM9.8 50.2h23.5V25.8H9.8v24.4z"/><use xlink:href="#B"/><path d="M49.6 42.7h5.3v-1.1h-4.1v-3.1h4v-1.1h-4v-3h4.1v-1.1h-5.3v9.4zm10.5-9.4l-4 9.5h1.2l1.3-3.1h4.1l1.3 3.1h1.3l-4.1-9.5h-1.1zm2.2 5.2h-3.2l1.6-3.7 1.6 3.7zm5.4-5.2h-1.2v9.5h5v-1.1h-3.8v-8.4zm3.5 1.1h2.1v8.4h1.2v-8.4h2.1v-1.1h-5.4v1.1zm10.7-1.3c-2.4 0-5 1.9-5 4.9 0 2.6 2.3 4.8 5 4.8 2.8 0 5-2.2 5-4.9s-2.3-4.8-5-4.8zm0 8.7c-2.1 0-3.8-1.7-3.8-3.7a3.8 3.8 0 1 1 7.6 0c0 2.1-1.7 3.7-3.8 3.7z"/><use xlink:href="#B" x="46.5"/><path d="M96.7 41.6h1.2v1.1h-1.2v-1.1zm9.2-1.1c-.2.4-.8 1.3-2.3 1.3a2.69 2.69 0 0 1-2.7-2.7c0-1.7 1.4-2.6 2.7-2.6 1 0 1.8.5 2.3 1.4v.1h1.2l-.1-.2c-.7-1.7-2.3-2.3-3.5-2.3-2.1 0-3.8 1.7-3.8 3.7 0 2.1 1.7 3.7 3.8 3.7 1.6 0 2.7-.7 3.5-2.2l.1-.2h-1.2zm8.6-4.8v1c-.8-1-2-1.1-2.5-1.1-2.4 0-3.8 1.9-3.8 3.7 0 2.1 1.7 3.7 3.8 3.7.5 0 1.7-.1 2.5-1.1v1h1.1v-7.1l-1.1-.1zm-2.5 6.1c-1.5 0-2.6-1.1-2.6-2.6 0-1.8 1.3-2.7 2.6-2.7 1.4 0 2.6 1.2 2.6 2.7s-1.2 2.6-2.6 2.6zm7-7c0 .7-.6 1.2-1.2 1.2-.7 0-1.2-.6-1.2-1.2s.5-1.2 1.2-1.2c.6 0 1.2.5 1.2 1.2zm-2.3 0a1.11 1.11 0 0 0 1.1 1.1 1.11 1.11 0 0 0 1.1-1.1 1.11 1.11 0 0 0-1.1-1.1c-.7 0-1.1.5-1.1 1.1zm1.1-.7c.1 0 .5 0 .5.4 0 .1-.1.3-.3.3.2.1.2.2.2.4v.3h-.2v-.3c0-.2 0-.3-.4-.3h-.4v.6h-.2v-1.4h.8zm-.4.7h.4c.1 0 .4 0 .4-.3 0-.2-.3-.2-.4-.2h-.4v.5z"/></g><g fill="#666"><path d="M1.6 3.9h2.2c1.8 0 3 .6 3 2.3S5.6 8.6 3.9 8.6H2.6v3.1h-1V3.9zm2.2 3.9c1.4 0 2-.5 2-1.6s-.7-1.5-2.1-1.5H2.6v3.1h1.2zm3.8 1c0-1.9 1.3-3.1 2.7-3.1S13 6.9 13 8.8s-1.3 3.1-2.7 3.1-2.7-1.1-2.7-3.1zm4.4 0c0-1.3-.7-2.2-1.7-2.2s-1.7.9-1.7 2.2.7 2.2 1.7 2.2 1.7-.8 1.7-2.2zm1.8-2.9h1l.9 3.4.3 1.6.4-1.6.9-3.4h1l.9 3.4c.1.6.3 1.1.4 1.6.1-.5.2-1.1.4-1.6l.8-3.4h.9l-1.6 5.8h-1.2l-.8-3.1c-.1-.6-.3-1.1-.4-1.7-.1.6-.2 1.1-.4 1.7l-.8 3.1h-1.2l-1.5-5.8z"/><use xlink:href="#C"/><path d="M29 5.9h.8l.1 1.1c.4-.7 1-1.2 1.7-1.2.3 0 .4 0 .6.1l-.2.9c-.2-.1-.3-.1-.6-.1-.4 0-1 .3-1.4 1.3v3.7h-1V5.9z"/><use xlink:href="#C" x="10"/><path d="M38.6 8.8c0-1.9 1.2-3.1 2.5-3.1.7 0 1.1.3 1.6.7V3.2h1v8.5h-.8l-.1-.7c-.5.5-1.1.8-1.8.8-1.4.1-2.4-1-2.4-3zm4.1 1.5V7.2c-.5-.4-.9-.6-1.4-.6-.9 0-1.7.9-1.7 2.2 0 1.4.6 2.2 1.6 2.2.6.1 1-.2 1.5-.7zm6.3.8l-.1.6h-.8V3.2h1v3.3c.5-.5 1.2-.8 1.8-.8 1.5 0 2.3 1.2 2.3 3 0 2-1.2 3.2-2.5 3.2-.6 0-1.2-.3-1.7-.8zm3.2-2.3c0-1.3-.4-2.1-1.5-2.1-.5 0-1 .3-1.6.8v3.1c.5.4 1 .6 1.4.6 1-.1 1.7-1 1.7-2.4zm1.9 5.3l.2-.8c.1 0 .3.1.4.1.7 0 1.1-.5 1.3-1.3l.1-.4-2.3-5.8h1l1.8 4.8c.2-.5.3-1.1.5-1.6l1-3.2h1L57 12.2c-.4 1.2-1 2-2.2 2-.3.1-.5 0-.7-.1zm6-7.3c0-.5.3-.8.7-.8s.7.3.7.8a.68.68 0 0 1-.7.7c-.4.1-.7-.2-.7-.7zm0 4.3c0-.5.3-.8.7-.8s.7.3.7.8a.68.68 0 0 1-.7.7c-.4.1-.7-.2-.7-.7z"/></g><defs ><path id="B" d="M48.4 36.4c0-1.2-.7-2.2-1.7-2.7-.4-.2-.9-.4-2.3-.4h-2.5v9.5h1.2v-8.4h1.5c.7 0 1.2.1 1.7.3a2.04 2.04 0 0 1 .9 1.6c0 .7-.4 1.5-1.4 1.8-.4.1-.8.1-1.9.1h-.3l3.3 4.4h1.5l-2.6-3.4c1.7-.1 2.6-1.5 2.6-2.8z"/><path id="C" d="M22.6 8.8c0-1.9 1.3-3.1 2.6-3.1 1.5 0 2.3 1.1 2.3 2.7V9h-3.9c.1 1.2.8 2 1.9 2 .6 0 1-.2 1.5-.5l.4.6c-.5.3-1.1.6-1.9.6-1.6.2-2.9-.9-2.9-2.9zm4.1-.4c0-1.2-.5-1.8-1.4-1.8-.8 0-1.6.7-1.7 1.8h3.1z"/></defs></svg>